<svg width="526" height="171" viewBox="0 0 526 171" fill="none" xmlns="http://www.w3.org/2000/svg">
<g clip-path="url(#clip0_348_477)">
<path d="M441.196 171C488.032 171 526 132.72 526 85.5C526 38.2797 488.032 0 441.196 0C394.359 0 356.391 38.2797 356.391 85.5C356.391 132.72 394.359 171 441.196 171Z" fill="#FFFEFE"/>
<path d="M432.758 58.9119C431.287 58.9119 429.965 58.5706 428.794 57.8946C427.622 57.2185 426.658 56.2472 425.91 54.9936C425.246 53.8844 424.771 52.6702 424.465 51.3444C424.165 50.0186 424.015 48.5025 424.015 46.7895C424.015 45.5293 424.041 44.2495 424.093 42.9434C424.146 41.6373 424.178 40.9088 424.191 40.7578C427.01 40.7972 429.672 40.8169 432.179 40.8103C434.679 40.8038 437.074 40.7972 439.346 40.7972C443.662 40.7972 447.08 40.7906 449.599 40.7775C452.119 40.7644 453.427 40.7578 453.531 40.7578C453.544 40.935 453.583 41.6242 453.642 42.8318C453.7 44.0329 453.733 45.2209 453.733 46.3826C453.733 47.6952 453.629 48.9094 453.427 50.0317C453.219 51.1541 452.952 52.0926 452.613 52.8408C452.086 54.0025 451.324 54.9214 450.335 55.5974C449.345 56.2734 448.128 56.6147 446.689 56.6147C445.179 56.6147 443.845 56.1487 442.692 55.2233C441.54 54.2913 440.713 53.2674 440.212 52.1451H440.101C440.01 53.0049 439.769 53.9107 439.366 54.8558C438.962 55.8009 438.402 56.5885 437.68 57.212C437.061 57.7567 436.358 58.1768 435.577 58.4721C434.789 58.7675 433.858 58.9119 432.771 58.9119H432.758ZM432.647 57.2711C433.487 57.2711 434.236 57.1595 434.893 56.9429C435.557 56.7263 436.156 56.385 436.697 55.919C437.387 55.3283 437.934 54.5013 438.324 53.425C438.721 52.3486 438.917 51.2 438.917 49.9661C438.917 49.4214 438.917 48.9685 438.904 48.6141C438.897 48.2597 438.884 48.0102 438.871 47.879L440.147 47.6296C440.264 48.7782 440.479 49.7692 440.798 50.6027C441.11 51.4363 441.56 52.1845 442.126 52.8408C442.829 53.6219 443.545 54.1732 444.268 54.4948C444.99 54.8164 445.739 54.9739 446.501 54.9739C447.672 54.9739 448.61 54.7245 449.313 54.2388C450.016 53.7466 450.595 53.1231 451.051 52.3748C451.52 51.5807 451.852 50.629 452.053 49.5264C452.249 48.4172 452.353 47.3933 452.353 46.4482C452.353 45.8444 452.34 45.0699 452.307 44.1117C452.275 43.1534 452.255 42.589 452.242 42.4118C450.101 42.3724 447.575 42.3527 444.671 42.3593C441.768 42.3658 439.769 42.3724 438.682 42.3724C436.156 42.3724 433.377 42.3789 430.33 42.3921C427.283 42.4052 425.675 42.4118 425.5 42.4118C425.487 42.6743 425.461 43.3175 425.422 44.3479C425.382 45.3784 425.369 46.0938 425.369 46.4941C425.369 48.1218 425.519 49.5789 425.819 50.8653C426.118 52.1517 426.587 53.3003 427.218 54.311C427.791 55.2299 428.52 55.9518 429.399 56.4835C430.278 57.0151 431.359 57.2842 432.634 57.2842L432.647 57.2711Z" fill="black"/>
<path d="M424.12 81.3323C424.12 81.1814 424.12 80.3741 424.133 78.9105C424.139 77.4469 424.146 75.5763 424.146 73.2923C424.146 71.8024 424.146 70.3913 424.133 69.0655C424.126 67.7397 424.12 66.6043 424.12 65.6592C426.646 65.6592 429.204 65.6657 431.795 65.6789C434.386 65.692 436.931 65.6986 439.425 65.6986C443.597 65.6986 446.774 65.692 448.962 65.6789C451.149 65.6657 452.685 65.6592 453.564 65.6592V67.3C451.67 67.3 449.482 67.2934 447.002 67.2803C444.522 67.2672 442.484 67.2606 440.902 67.2606C437.042 67.2606 433.559 67.2672 430.46 67.2803C427.362 67.2934 425.741 67.3 425.591 67.3C425.591 67.8185 425.591 68.6914 425.578 69.9122C425.565 71.133 425.565 72.0453 425.565 72.6294C425.565 74.9265 425.565 76.9218 425.578 78.6217C425.585 80.315 425.591 81.2207 425.591 81.3258H424.113L424.12 81.3323Z" fill="black"/>
<path d="M438.812 109.187C436.475 109.187 434.347 108.865 432.426 108.235C430.506 107.605 428.8 106.64 427.316 105.354C425.962 104.179 424.953 102.886 424.289 101.488C423.618 100.084 423.286 98.4953 423.286 96.7167C423.286 94.938 423.638 93.3103 424.334 91.827C425.031 90.3437 426.118 88.9982 427.583 87.7972C429.048 86.5961 430.727 85.6969 432.602 85.0996C434.483 84.5024 436.534 84.207 438.767 84.207C441.234 84.207 443.441 84.5418 445.387 85.2112C447.334 85.8807 449.111 86.9439 450.732 88.3878C451.923 89.4511 452.822 90.7047 453.44 92.142C454.059 93.5794 454.365 95.1021 454.365 96.7167C454.365 98.4231 454.046 99.9852 453.408 101.403C452.77 102.821 451.748 104.133 450.335 105.354C448.864 106.627 447.184 107.585 445.29 108.229C443.395 108.872 441.234 109.193 438.812 109.193V109.187ZM439.034 107.546C441.221 107.546 443.252 107.205 445.134 106.522C447.015 105.84 448.603 104.888 449.912 103.674C451.012 102.65 451.8 101.541 452.281 100.353C452.757 99.1648 452.997 97.944 452.997 96.7035C452.997 95.3646 452.763 94.1307 452.294 93.0018C451.826 91.873 451.071 90.8097 450.022 89.8121C448.701 88.5519 447.08 87.5806 445.153 86.8914C443.226 86.2023 441.11 85.8544 438.786 85.8544C436.462 85.8544 434.477 86.1695 432.654 86.7995C430.825 87.4296 429.21 88.3813 427.798 89.648C426.769 90.5669 425.988 91.6301 425.454 92.8509C424.92 94.0651 424.653 95.3515 424.653 96.7101C424.653 97.9834 424.901 99.2238 425.402 100.431C425.903 101.639 426.658 102.702 427.667 103.621C429.152 104.947 430.76 105.938 432.504 106.588C434.249 107.238 436.423 107.559 439.034 107.559V107.546Z" fill="black"/>
<path d="M439.229 134.377C438.174 134.351 436.937 134.337 435.518 134.337H432.003C430.519 134.337 428.865 134.337 427.036 134.357C425.206 134.37 424.191 134.377 423.983 134.377C423.957 134.213 423.918 133.806 423.872 133.169C423.826 132.526 423.807 132.027 423.807 131.673C423.807 128.719 424.184 125.989 424.94 123.488C425.695 120.988 426.997 118.894 428.846 117.214C429.978 116.19 431.391 115.35 433.096 114.693C434.802 114.037 436.736 113.709 438.91 113.709C441.579 113.709 443.975 114.332 446.077 115.573C448.186 116.82 449.886 118.487 451.174 120.574C452.053 121.998 452.717 123.685 453.167 125.628C453.616 127.577 453.837 129.553 453.837 131.568C453.837 131.87 453.837 132.152 453.824 132.421C453.818 132.69 453.811 132.933 453.811 133.149L452.379 133.228C452.379 133.176 452.379 132.959 452.392 132.592C452.398 132.224 452.405 131.935 452.405 131.732C452.405 129.586 452.19 127.649 451.754 125.917C451.318 124.184 450.686 122.635 449.846 121.27C448.89 119.695 447.47 118.316 445.582 117.128C443.695 115.941 441.455 115.343 438.851 115.343C436.247 115.343 434.125 115.868 432.114 116.912C430.102 117.955 428.605 119.314 427.622 120.981C426.814 122.359 426.203 123.967 425.779 125.799C425.363 127.63 425.154 129.953 425.154 132.775C425.389 132.775 426.801 132.775 429.392 132.762C431.983 132.756 435.251 132.743 439.203 132.729V134.37L439.229 134.377Z" fill="black"/>
<path d="M11.6332 41.1319C7.75329 41.1319 3.87339 41.1319 0 40.7578V44.151C3.8799 43.7769 7.7598 43.7769 11.6332 43.7769H43.2778V125.267C43.2778 128.404 43.2778 131.548 42.8091 134.685H47.3074C46.8387 131.548 46.8387 128.411 46.8387 125.267V43.7769H78.4834C82.3633 43.7769 86.2366 43.7769 90.1166 44.151V40.7578C86.2366 41.1319 82.3633 41.1319 78.4834 41.1319H11.6332Z" fill="#FFFEFE"/>
<path d="M199.867 40.5674H195.368C195.837 43.7046 195.837 46.8419 195.837 49.9857V83.8851H116.26V49.9857C116.26 46.8485 116.26 43.7046 116.722 40.5674H112.224C112.693 43.7046 112.693 46.8419 112.693 49.9857V124.696C112.693 127.833 112.693 130.977 112.224 134.114H116.722C116.26 130.977 116.26 127.839 116.26 124.696V86.5236H195.837V124.696C195.837 127.833 195.837 130.977 195.368 134.114H199.867C199.398 130.977 199.398 127.839 199.398 124.696V49.9857C199.398 46.8485 199.398 43.7046 199.867 40.5674Z" fill="#FFFEFE"/>
<path d="M225.998 131.476V88.664H270.363C274.243 88.664 278.116 88.664 281.996 89.0381V85.6449C278.116 86.019 274.243 86.019 270.363 86.019H225.998V43.2066H275.636C279.516 43.2066 283.389 43.2066 287.269 43.5807V40.1875C283.389 40.5616 279.516 40.5616 275.636 40.5616H233.907C230.027 40.5616 225.841 40.5616 221.962 40.1875C222.424 43.4495 222.424 46.5933 222.424 49.7305V125.064C222.424 128.201 222.424 131.345 221.962 134.482C225.841 134.108 230.027 134.108 233.907 134.108H277.96C281.84 134.108 285.713 134.108 289.593 134.482V131.096C285.713 131.47 281.84 131.47 277.96 131.47H225.991L225.998 131.476Z" fill="#FFFEFE"/>
<path d="M326.276 50.3666C323.483 47.2293 320.847 44.0855 318.523 40.9482H311.7C312.169 44.0855 312.169 47.2227 312.169 50.3666V125.077C312.169 128.214 312.169 131.358 311.7 134.495H316.199C315.736 131.358 315.736 128.22 315.736 125.077V43.2126C318.06 45.5951 320.079 47.9841 322.253 50.3666L356.156 89.1491L355.968 84.2791L326.282 50.3666H326.276Z" fill="#FFFEFE"/>
<path d="M399.181 50.3666C399.181 47.2293 399.181 44.0855 399.649 40.9482H395.151C395.613 44.0855 395.613 47.2227 395.613 50.3666V129.592L355.955 84.2791L356.144 89.1491L387.547 125.07C390.34 128.207 392.664 131.095 394.682 134.488H399.649C399.181 131.351 399.181 128.214 399.181 125.07V50.36V50.3666Z" fill="black"/>
</g>
<defs>
<clipPath id="clip0_348_477">
<rect width="526" height="171" fill="white"/>
</clipPath>
</defs>
</svg>
