<svg width="237" height="137" viewBox="0 0 237 137" fill="none" xmlns="http://www.w3.org/2000/svg">
<path d="M47.9701 23.3706L35.0781 128H17.0765L29.9685 23.3706H0.961498L3.00535 6.62673H77.7631L75.7193 23.3706H47.9701ZM82.5123 79.75L76.5748 128H69.4186L72.3248 104.438H52.3873L49.5123 128H42.3561L48.2936 79.75H55.4186L53.1061 98.6562H73.0436L75.3561 79.75H82.5123ZM115.43 79.75L114.617 86.4062H96.8986L95.3673 98.9062H113.086L112.336 105.094H94.6173L92.6173 121.344H110.336L109.492 128H84.6486L90.5861 79.75H115.43ZM236.066 6.62673L220.187 136.333L146.53 42.3155L135.996 128H117.994L133.795 0.0235216L207.452 93.8834L218.143 6.62673H236.066Z" fill="black"/>
</svg>
