<svg width="160" height="52" viewBox="0 0 160 52" fill="none" xmlns="http://www.w3.org/2000/svg">
<g clip-path="url(#clip0_271_353)">
<path d="M134.204 52C148.451 52 160 40.3594 160 26C160 11.6406 148.451 0 134.204 0C119.957 0 108.408 11.6406 108.408 26C108.408 40.3594 119.957 52 134.204 52Z" fill="#FFFEFE"/>
<path d="M131.637 17.9146C131.19 17.9146 130.788 17.8108 130.431 17.6052C130.075 17.3996 129.782 17.1043 129.554 16.7231C129.352 16.3858 129.208 16.0165 129.115 15.6134C129.024 15.2102 128.978 14.7492 128.978 14.2282C128.978 13.845 128.986 13.4558 129.002 13.0587C129.018 12.6615 129.028 12.4399 129.031 12.394C129.889 12.406 130.699 12.412 131.461 12.41C132.222 12.408 132.95 12.406 133.641 12.406C134.954 12.406 135.994 12.404 136.76 12.4C137.527 12.396 137.925 12.394 137.956 12.394C137.96 12.4479 137.972 12.6575 137.99 13.0247C138.008 13.39 138.018 13.7512 138.018 14.1045C138.018 14.5037 137.986 14.8729 137.925 15.2142C137.861 15.5555 137.78 15.8409 137.677 16.0684C137.517 16.4217 137.285 16.7011 136.984 16.9067C136.683 17.1122 136.313 17.216 135.875 17.216C135.416 17.216 135.01 17.0743 134.659 16.7929C134.309 16.5095 134.057 16.1981 133.905 15.8569H133.871C133.843 16.1183 133.77 16.3937 133.647 16.6811C133.525 16.9685 133.354 17.208 133.134 17.3977C132.946 17.5633 132.732 17.691 132.495 17.7809C132.255 17.8707 131.972 17.9146 131.641 17.9146H131.637ZM131.604 17.4156C131.859 17.4156 132.087 17.3817 132.287 17.3158C132.489 17.25 132.671 17.1462 132.835 17.0045C133.045 16.8248 133.212 16.5734 133.33 16.246C133.451 15.9187 133.511 15.5694 133.511 15.1942C133.511 15.0286 133.511 14.8909 133.507 14.7831C133.505 14.6753 133.501 14.5995 133.497 14.5595L133.885 14.4837C133.921 14.833 133.986 15.1344 134.083 15.3878C134.178 15.6413 134.315 15.8688 134.487 16.0684C134.701 16.3059 134.919 16.4736 135.138 16.5714C135.358 16.6692 135.586 16.7171 135.818 16.7171C136.174 16.7171 136.459 16.6412 136.673 16.4935C136.887 16.3438 137.063 16.1542 137.202 15.9267C137.344 15.6852 137.445 15.3958 137.507 15.0605C137.566 14.7232 137.598 14.4119 137.598 14.1244C137.598 13.9408 137.594 13.7053 137.584 13.4139C137.574 13.1225 137.568 12.9509 137.564 12.897C136.913 12.885 136.144 12.879 135.261 12.881C134.378 12.883 133.77 12.885 133.439 12.885C132.671 12.885 131.826 12.887 130.899 12.891C129.972 12.895 129.483 12.897 129.43 12.897C129.426 12.9768 129.418 13.1724 129.406 13.4858C129.394 13.7991 129.39 14.0167 129.39 14.1384C129.39 14.6334 129.435 15.0765 129.527 15.4677C129.618 15.8588 129.76 16.2081 129.952 16.5155C130.127 16.7949 130.348 17.0144 130.616 17.1761C130.883 17.3378 131.212 17.4196 131.6 17.4196L131.604 17.4156Z" fill="#78787A"/>
<path d="M129.01 24.7324C129.01 24.6865 129.01 24.441 129.014 23.9959C129.016 23.5509 129.018 22.982 129.018 22.2875C129.018 21.8344 129.018 21.4053 129.014 21.0022C129.012 20.599 129.01 20.2537 129.01 19.9663C129.778 19.9663 130.556 19.9683 131.344 19.9723C132.133 19.9763 132.907 19.9783 133.665 19.9783C134.935 19.9783 135.901 19.9763 136.566 19.9723C137.232 19.9683 137.699 19.9663 137.966 19.9663V20.4653C137.39 20.4653 136.725 20.4633 135.97 20.4593C135.216 20.4553 134.596 20.4533 134.115 20.4533C132.94 20.4533 131.881 20.4553 130.939 20.4593C129.996 20.4633 129.503 20.4653 129.457 20.4653C129.457 20.6229 129.457 20.8884 129.453 21.2596C129.449 21.6309 129.449 21.9083 129.449 22.0859C129.449 22.7845 129.449 23.3912 129.453 23.9081C129.455 24.4231 129.457 24.6985 129.457 24.7304H129.008L129.01 24.7324Z" fill="#78787A"/>
<path d="M133.479 33.2027C132.768 33.2027 132.121 33.1049 131.536 32.9133C130.952 32.7217 130.433 32.4283 129.982 32.0371C129.57 31.6798 129.263 31.2866 129.061 30.8615C128.857 30.4344 128.756 29.9514 128.756 29.4105C128.756 28.8697 128.863 28.3747 129.075 27.9236C129.287 27.4726 129.618 27.0634 130.063 26.6982C130.509 26.3329 131.02 26.0595 131.59 25.8779C132.162 25.6963 132.786 25.6064 133.465 25.6064C134.216 25.6064 134.887 25.7082 135.479 25.9118C136.071 26.1154 136.612 26.4387 137.105 26.8778C137.467 27.2011 137.74 27.5823 137.929 28.0194C138.117 28.4565 138.21 28.9196 138.21 29.4105C138.21 29.9295 138.113 30.4045 137.919 30.8356C137.725 31.2667 137.414 31.6659 136.984 32.0371C136.536 32.4243 136.026 32.7157 135.449 32.9113C134.873 33.1069 134.216 33.2047 133.479 33.2047V33.2027ZM133.546 32.7037C134.212 32.7037 134.83 32.5999 135.402 32.3924C135.974 32.1848 136.457 31.8954 136.855 31.5262C137.19 31.2148 137.43 30.8775 137.576 30.5162C137.721 30.155 137.794 29.7838 137.794 29.4066C137.794 28.9994 137.723 28.6242 137.58 28.2809C137.437 27.9376 137.208 27.6143 136.889 27.3109C136.487 26.9277 135.994 26.6323 135.408 26.4227C134.822 26.2132 134.178 26.1074 133.471 26.1074C132.764 26.1074 132.16 26.2032 131.606 26.3948C131.049 26.5864 130.558 26.8758 130.129 27.261C129.816 27.5404 129.578 27.8638 129.416 28.235C129.253 28.6042 129.172 28.9954 129.172 29.4085C129.172 29.7957 129.247 30.173 129.4 30.5402C129.552 30.9074 129.782 31.2308 130.089 31.5102C130.54 31.9133 131.029 32.2147 131.56 32.4123C132.091 32.6099 132.752 32.7077 133.546 32.7077V32.7037Z" fill="#78787A"/>
<path d="M133.606 40.8631C133.285 40.8551 132.909 40.8511 132.477 40.8511H131.408C130.956 40.8511 130.453 40.8511 129.897 40.8571C129.34 40.8611 129.031 40.8631 128.968 40.8631C128.96 40.8132 128.948 40.6894 128.934 40.4958C128.921 40.3002 128.915 40.1486 128.915 40.0408C128.915 39.1426 129.029 38.3124 129.259 37.5519C129.489 36.7915 129.885 36.1548 130.447 35.6439C130.792 35.3326 131.222 35.0771 131.74 34.8775C132.259 34.6779 132.847 34.5781 133.509 34.5781C134.321 34.5781 135.049 34.7677 135.689 35.1449C136.33 35.5242 136.847 36.0311 137.239 36.6658C137.507 37.0989 137.709 37.6118 137.845 38.2026C137.982 38.7954 138.049 39.3961 138.049 40.0088C138.049 40.1007 138.049 40.1865 138.045 40.2683C138.043 40.3501 138.041 40.424 138.041 40.4898L137.606 40.5138C137.606 40.4978 137.606 40.432 137.61 40.3202C137.612 40.2084 137.614 40.1206 137.614 40.0587C137.614 39.4061 137.548 38.8173 137.416 38.2904C137.283 37.7635 137.091 37.2925 136.835 36.8774C136.544 36.3983 136.113 35.9792 135.538 35.618C134.964 35.2567 134.283 35.0751 133.491 35.0751C132.699 35.0751 132.053 35.2348 131.441 35.5521C130.829 35.8694 130.374 36.2826 130.075 36.7895C129.829 37.2087 129.643 37.6976 129.515 38.2545C129.388 38.8113 129.325 39.5179 129.325 40.3761C129.396 40.3761 129.825 40.3761 130.614 40.3721C131.402 40.3701 132.396 40.3661 133.598 40.3621V40.8611L133.606 40.8631Z" fill="#78787A"/>
<path d="M3.53861 12.5078C2.35842 12.5078 1.17822 12.5078 0 12.394V13.4259C1.1802 13.3121 2.3604 13.3121 3.53861 13.3121H13.1644V38.0927C13.1644 39.0467 13.1644 40.0027 13.0218 40.9567H14.3901C14.2475 40.0027 14.2475 39.0487 14.2475 38.0927V13.3121H23.8733C25.0535 13.3121 26.2317 13.3121 27.4119 13.4259V12.394C26.2317 12.5078 25.0535 12.5078 23.8733 12.5078H3.53861Z" fill="#FFFEFE"/>
<path d="M60.796 12.3364H59.4277C59.5703 13.2904 59.5703 14.2445 59.5703 15.2005V25.5091H35.3643V15.2005C35.3643 14.2465 35.3643 13.2904 35.5049 12.3364H34.1366C34.2792 13.2904 34.2792 14.2445 34.2792 15.2005V37.9193C34.2792 38.8733 34.2792 39.8293 34.1366 40.7833H35.5049C35.3643 39.8293 35.3643 38.8753 35.3643 37.9193V26.3114H59.5703V37.9193C59.5703 38.8733 59.5703 39.8293 59.4277 40.7833H60.796C60.6534 39.8293 60.6534 38.8753 60.6534 37.9193V15.2005C60.6534 14.2465 60.6534 13.2904 60.796 12.3364Z" fill="#FFFEFE"/>
<path d="M68.7446 39.981V26.9621H82.2396C83.4198 26.9621 84.598 26.9621 85.7782 27.0758V26.044C84.598 26.1578 83.4198 26.1578 82.2396 26.1578H68.7446V13.1388H83.8436C85.0238 13.1388 86.202 13.1388 87.3822 13.2526V12.2207C86.202 12.3345 85.0238 12.3345 83.8436 12.3345H71.1505C69.9703 12.3345 68.697 12.3345 67.5168 12.2207C67.6574 13.2126 67.6574 14.1687 67.6574 15.1227V38.0311C67.6574 38.9851 67.6574 39.9411 67.5168 40.8951C68.697 40.7814 69.9703 40.7814 71.1505 40.7814H84.5505C85.7307 40.7814 86.9089 40.7814 88.0891 40.8951V39.8653C86.9089 39.979 85.7307 39.979 84.5505 39.979H68.7426L68.7446 39.981Z" fill="#FFFEFE"/>
<path d="M99.2474 15.3162C98.3979 14.3622 97.596 13.4062 96.889 12.4521H94.8138C94.9564 13.4062 94.9564 14.3602 94.9564 15.3162V38.035C94.9564 38.989 94.9564 39.945 94.8138 40.8991H96.1821C96.0415 39.945 96.0415 38.991 96.0415 38.035V13.1407C96.7484 13.8652 97.3623 14.5917 98.0237 15.3162L108.337 27.1097L108.279 25.6288L99.2494 15.3162H99.2474Z" fill="#FFFEFE"/>
<path d="M121.424 15.3162C121.424 14.3622 121.424 13.4062 121.566 12.4521H120.198C120.339 13.4062 120.339 14.3602 120.339 15.3162V39.4082L108.275 25.6288L108.333 27.1097L117.885 38.033C118.735 38.987 119.442 39.8652 120.055 40.8971H121.566C121.424 39.9431 121.424 38.989 121.424 38.033V15.3142V15.3162Z" fill="#78787A"/>
</g>
<defs>
<clipPath id="clip0_271_353">
<rect width="160" height="52" fill="white"/>
</clipPath>
</defs>
</svg>
