<svg width="80" height="95" viewBox="0 0 80 95" fill="none" xmlns="http://www.w3.org/2000/svg">
<path d="M10.9723 79.1976C9.97834 72.88 7.08945 67.4331 5.08081 64.4769C4.40935 63.4886 3.17604 62.739 2.86868 61.5844C2.24578 59.2445 2.5544 54.4573 2.90671 51.4551C2.94034 51.1685 2.94539 50.8771 2.9194 50.5898C2.26818 43.3887 2.02974 39.2043 1.97216 37.4285C1.95651 36.9461 1.86373 36.4685 1.71498 36.0093C-1.21981 26.9492 5.56457 18.7164 9.67751 15.4414C9.87262 15.2861 10.053 15.1199 10.2226 14.9371C14.9324 9.86037 22.9137 5.5707 26.6759 3.895C26.8912 3.79908 27.0967 3.68626 27.2966 3.56125C36.3614 -2.10815 52.5187 2.91015 60.0357 6.37473C60.3675 6.52765 60.7137 6.62812 61.0641 6.72982L61.1169 6.74516C65.8604 8.1239 72.0097 17.3066 74.5781 21.8979C81.448 32.8142 78.8654 41.131 76.4405 44.3717C76.2114 44.6779 75.9055 44.9134 75.6536 45.2012C74.8838 46.0805 74.1165 47.9082 73.5818 49.44C73.2307 50.4459 73.3993 51.5374 73.7866 52.5299C75.7483 57.5577 73.8009 62.6636 72.2944 65.02C72.1514 65.2438 71.9778 65.4411 71.7911 65.63C70.0016 67.4396 63.3478 74.6536 60.0539 78.2426L54.7508 84.6775C54.6137 84.8439 54.4906 85.0229 54.3779 85.2068C50.3017 91.8588 41.8045 93.843 38.0173 94C32.8086 94 23.4931 91.4533 19.4864 90.18C14.6785 88.27 11.807 82.0626 10.9723 79.1976Z" stroke="black"/>
</svg>
