<svg width="83" height="99" viewBox="0 0 83 99" fill="none" xmlns="http://www.w3.org/2000/svg">
<g clip-path="url(#clip0_11_76)">
<path d="M22.5476 96.0726C23.1089 96.0726 23.6421 95.7455 23.8498 95.1984C24.0014 94.7923 23.8891 94.0929 23.3222 94.0929C22.7553 94.0929 22.2277 94.42 22.02 94.9671C21.8684 95.3732 21.9807 96.0726 22.5476 96.0726Z" fill="#231815"/>
<path d="M22.3175 93.1735C18.5792 92.3161 16.1544 88.8642 14.7567 85.5026C13.056 81.402 12.6462 76.8897 10.9679 72.7779C10.1596 70.7924 8.9753 69.0608 7.79094 67.2898C6.67956 65.6259 5.5345 63.8266 5.29314 61.7904C5.15282 60.6059 5.39979 59.4384 5.62992 58.2821C5.87129 57.0581 6.02284 55.8511 6.01722 54.6045C6.006 52.0607 5.43908 49.562 5.05739 47.0577C4.30525 42.1055 3.96285 37.0066 4.28841 32.0035C4.44557 29.6007 4.82726 27.2092 5.77586 24.9813C6.5673 23.1256 7.71798 21.4335 9.03143 19.9162C11.8211 16.6899 15.2226 13.9825 18.5175 11.3033C21.8123 8.62415 25.371 5.96189 29.3057 4.17388C33.5829 2.23359 38.0396 1.64699 42.6872 2.23359C45.2243 2.55509 47.7221 3.11913 50.2143 3.70573C52.4427 4.23029 54.6767 4.7492 56.8545 5.46553C59.0324 6.18186 61.098 7.04484 63.012 8.24624C64.9261 9.44764 66.5258 10.9593 67.9964 12.6232C71.0274 16.0525 73.688 20.0008 75.9164 23.9998C78.1111 27.9425 79.7445 32.2291 79.9073 36.7866C79.9802 38.9243 79.7164 41.1128 79.0092 43.1377C78.3019 45.1625 77.0783 46.7362 75.9838 48.5242C75.4281 49.4267 74.9622 50.3743 74.7096 51.4064C74.4402 52.5176 74.5468 53.6344 74.777 54.7399C75.2541 57.0468 75.5179 59.2917 75.2035 61.6437C74.6366 65.9699 72.3914 69.6023 69.5512 72.8061C66.7615 75.959 63.6351 78.7905 61.0475 82.1296C58.4599 85.4687 56.2988 89.2703 53.1387 92.1639C46.2908 98.436 36.1649 97.5391 27.88 95.3507C25.5562 94.7359 23.2661 94.0139 20.976 93.2919C20.4371 93.1227 19.887 93.3878 19.5839 93.856C19.3594 94.2 19.2191 94.9784 19.7636 95.1476C28.8398 98.0129 38.7918 100.968 48.087 97.2797C52.3697 95.5819 55.5579 92.491 58.2858 88.8473C59.6217 87.0593 60.8622 85.198 62.2037 83.41C63.5453 81.622 64.971 80.0765 66.4753 78.5141C69.5007 75.3668 72.7394 72.2589 74.8499 68.3784C77.1457 64.1537 77.8922 59.2973 76.8818 54.5876C76.6405 53.4539 76.3598 52.3033 76.6685 51.1526C76.938 50.1486 77.5273 49.2631 78.0999 48.4114C79.3572 46.5388 80.491 44.6831 81.1141 42.4946C82.3826 38.0726 81.9953 33.3911 80.5696 29.0593C79.0485 24.4398 76.4047 20.2997 73.6487 16.3402C70.9489 12.4652 68.0132 8.68055 63.9157 6.20442C59.8575 3.7565 55.1425 2.70174 50.5848 1.63571C45.5611 0.462512 40.369 -0.580958 35.2163 0.377907C30.7371 1.21268 26.6227 3.32783 22.8844 5.88856C19.1461 8.44929 15.638 11.4105 12.2309 14.3999C8.82374 17.3893 5.76464 20.5592 3.9853 24.6598C1.96461 29.3074 2.06564 34.7109 2.28455 39.6857C2.40243 42.3254 2.65501 44.9595 3.04231 47.571C3.42961 50.1825 4.04143 52.7545 4.04143 55.3886C4.04143 57.8816 2.98057 60.2901 3.35103 62.7887C3.66536 64.949 4.81603 66.8329 6.006 68.6153C7.26332 70.4935 8.48135 72.3379 9.30085 74.4643C10.1204 76.5908 10.6704 79.0274 11.2486 81.34C12.2589 85.3728 13.578 89.5072 16.6371 92.4741C18.0179 93.8108 19.6737 94.7415 21.5429 95.1702C22.5757 95.4071 23.586 93.4781 22.3119 93.1904L22.3175 93.1735Z" fill="#231815"/>
<path d="M13.8136 42.6582C15.0204 38.6592 16.912 34.914 19.4547 31.6031C20.6615 30.035 22.0648 28.5967 23.9396 27.8917C25.8143 27.1866 27.9136 27.1472 29.9006 27.3559C33.6557 27.762 37.2818 29.0762 40.4643 31.1124C42.0697 32.1389 43.5515 33.3629 44.8706 34.7391C46.3244 36.2507 47.5255 37.9654 48.7716 39.6463C51.421 43.2053 54.845 46.7193 59.616 46.5332C60.7106 46.488 61.2943 44.5026 59.8967 44.559C55.5803 44.7282 52.4538 40.8815 50.1356 37.7454C48.8558 36.0138 47.5985 34.2653 46.0662 32.7424C44.6854 31.3718 43.1362 30.1648 41.4915 29.1382C38.1349 27.04 34.2563 25.7032 30.316 25.3422C28.2111 25.1505 26.0613 25.2576 24.0462 25.9345C22.0311 26.6113 20.2967 27.9876 18.8991 29.6176C15.7277 33.3177 13.387 37.768 11.9782 42.4326C11.5516 43.8427 13.4656 43.7863 13.808 42.6582H13.8136Z" fill="#231815"/>
<path d="M60.5647 47.272C65.7511 49.2631 70.8309 51.5305 75.7816 54.0631C76.7358 54.5538 78.0661 52.7545 76.994 52.2074C72.0433 49.6748 66.9635 47.4074 61.7771 45.4164C60.778 45.0328 59.4589 46.849 60.5647 47.272Z" fill="#231815"/>
<path d="M7.57199 59.4722C11.3776 64.165 18.2424 65.5074 23.5411 62.6985C26.1399 61.3222 28.2224 59.0886 29.519 56.449C30.1589 55.146 30.4732 53.781 30.7314 52.3597C30.8212 51.8746 30.8998 51.0906 31.2871 50.7296C31.6744 50.3686 32.3199 50.6563 32.6903 50.9101C34.1329 51.9028 34.1385 53.7134 34.2788 55.287C34.4192 56.8607 34.784 58.3159 35.8 59.5568C37.5344 61.6776 40.47 62.5406 43.0688 62.9241C45.6677 63.3077 48.6538 63.2625 51.1516 62.1796C52.4482 61.6155 53.5765 60.7864 54.4465 59.664C55.2211 58.6713 55.6645 57.4755 56.0237 56.2797C56.383 55.084 56.6356 53.7641 57.2642 52.6699C58.0444 51.3049 59.4084 51.4967 60.8341 51.8972C65.0944 53.0929 69.3435 54.3338 73.5926 55.5521C74.137 55.7101 74.6759 55.4675 74.9846 54.9881C75.2035 54.6553 75.355 53.8544 74.805 53.6964C71.0386 52.6191 67.2723 51.5362 63.5059 50.4589C61.8052 49.9681 59.9865 49.2236 58.2128 49.7989C57.0846 50.1712 56.1809 51.0398 55.6084 52.072C54.4409 54.1646 54.4465 56.872 52.9815 58.7897C51.5165 60.7074 48.6089 61.1812 46.3076 61.1474C43.7031 61.1079 40.7675 60.6398 38.5953 59.0999C37.4614 58.2934 36.6588 57.1596 36.4006 55.7777C36.0918 54.1308 36.3164 52.3033 35.4969 50.786C34.8401 49.5677 33.5997 48.5129 32.1571 48.5806C30.7145 48.6483 29.5302 49.8835 29.0868 51.2598C28.6433 52.636 28.5984 53.9897 28.0876 55.2983C27.5769 56.6069 26.8584 57.7462 25.9379 58.7446C23.8049 61.0515 20.7963 62.3714 17.6474 62.2021C14.3469 62.0273 11.2429 60.4705 9.14926 57.8872C8.45324 57.0299 6.84791 58.6036 7.56077 59.4835L7.57199 59.4722Z" fill="#231815"/>
<path d="M8.37468 49.8384C10.4178 47.7402 13.1177 46.4147 15.9972 45.9691C17.4454 45.7435 18.9047 45.7379 20.3473 45.9635C21.9358 46.2117 23.3054 46.8434 24.7872 47.4243C25.5057 47.7064 26.2522 47.932 27.0324 47.9207C27.9305 47.9094 28.6546 47.5597 29.4011 47.0859C30.1982 46.5839 30.9223 46.849 31.7754 47.1028C32.6286 47.3567 33.5379 47.5484 34.4641 47.5597C36.3108 47.5879 38.1013 47.148 39.8863 46.7193C41.7666 46.2681 43.6358 45.9296 45.5779 45.9184C47.7782 45.9071 49.9729 46.1383 52.162 46.3245C54.3511 46.5106 56.7366 46.7024 59.0211 46.8941C59.5768 46.9393 60.1269 46.5332 60.3234 46.0199C60.4861 45.5743 60.3514 44.9595 59.7957 44.9144C55.6926 44.5759 51.567 44.0796 47.447 43.9555C45.4207 43.8935 43.4169 44.0175 41.4355 44.4519C39.4541 44.8862 37.6747 45.4558 35.7382 45.563C34.8065 45.6138 33.8859 45.5066 32.9879 45.2472C32.1403 44.999 31.2983 44.7 30.3946 44.8016C29.4909 44.9031 28.9521 45.4728 28.1775 45.8112C27.3355 46.1778 26.3308 45.7153 25.5562 45.3825C22.6543 44.1473 19.7467 43.5268 16.5809 43.9555C13.0391 44.4349 9.68252 46.0819 7.18472 48.6483C6.84794 48.998 6.59535 49.641 6.98826 50.0415C7.38117 50.4419 8.04913 50.1768 8.37468 49.8441V49.8384Z" fill="#231815"/>
<path d="M29.6537 55.6367C29.4179 57.8252 28.75 59.9291 27.6273 61.8242C27.0885 62.7323 26.5047 63.6968 26.4598 64.7798C26.4149 65.8628 26.7966 66.7596 27.7059 67.2954C28.6152 67.8312 29.9624 66.0545 28.9183 65.4397C28.2953 65.0731 28.3795 64.2045 28.6152 63.6404C28.9689 62.7718 29.547 61.9934 29.9568 61.153C30.8492 59.3425 31.4049 57.3627 31.6182 55.3547C31.7698 53.9559 29.7715 54.5481 29.6537 55.6367Z" fill="#231815"/>
<path d="M24.7142 82.6542C30.3609 83.7033 36.2434 82.5696 41.1604 79.614C42.2606 78.9541 41.6936 77.2789 40.4363 78.0347C35.9627 80.7195 30.6023 81.6163 25.4888 80.6688C24.4504 80.477 23.44 82.4116 24.7198 82.6485L24.7142 82.6542Z" fill="#231815"/>
<path d="M9.50852 50.363C8.67218 52.0438 7.83584 53.719 6.9995 55.3998C6.7862 55.8342 7.01072 56.4602 7.52712 56.5054C8.12772 56.5561 8.57676 56.1275 8.82935 55.6311C9.66569 53.9503 10.502 52.2751 11.3384 50.5942C11.5517 50.1599 11.3271 49.5338 10.8107 49.4887C10.2102 49.438 9.76111 49.8666 9.50852 50.363Z" fill="#231815"/>
<path d="M13.331 49.2349L10.1877 58.2595C10.0249 58.722 10.1652 59.2917 10.7153 59.365C11.2654 59.4384 11.8435 58.9871 12.0175 58.4908L15.1608 49.4662C15.3236 49.0036 15.1833 48.434 14.6332 48.3606C14.0831 48.2873 13.505 48.7385 13.331 49.2349Z" fill="#231815"/>
<path d="M18.0347 48.5299L13.7183 57.876C13.5106 58.3272 13.7295 58.9138 14.2459 58.9815C14.8241 59.0604 15.3236 58.5923 15.5482 58.1072L19.8646 48.7611C20.0723 48.3099 19.8534 47.7233 19.337 47.6556C18.7588 47.5766 18.2593 48.0448 18.0347 48.5299Z" fill="#231815"/>
<path d="M21.6831 50.363C20.3248 53.3749 19.2078 56.4884 18.3378 59.6809C18.2087 60.149 18.2929 60.7074 18.8654 60.7864C19.3762 60.8541 20.0273 60.4141 20.1676 59.9121C21.0376 56.7197 22.1546 53.6062 23.513 50.5942C23.7151 50.1374 23.5074 49.562 22.9854 49.4887C22.4128 49.4098 21.902 49.8779 21.6831 50.363Z" fill="#231815"/>
<path d="M25.6011 52.151L23.4513 56.8269C23.2492 57.2612 23.4513 57.8872 23.9789 57.9324C24.5627 57.9831 25.0454 57.5601 25.2812 57.0581L27.431 52.3822C27.633 51.9479 27.431 51.3218 26.9033 51.2767C26.3196 51.226 25.8369 51.649 25.6011 52.151Z" fill="#231815"/>
<path d="M37.7533 48.1801C36.6812 50.583 35.8673 53.0929 35.2891 55.6593C35.1713 56.1782 35.6484 56.573 36.1311 56.5054C36.7092 56.4264 37.1302 55.9244 37.2537 55.3773C37.7925 52.9801 38.584 50.6506 39.5831 48.4058C39.7852 47.9489 39.5775 47.3736 39.0555 47.3003C38.483 47.2213 37.9722 47.6894 37.7533 48.1745V48.1801Z" fill="#231815"/>
<path d="M42.2157 49.3928C40.5487 52.2187 39.3699 55.2927 38.73 58.5133C38.6234 59.0322 39.078 59.4271 39.572 59.3594C40.1389 59.2804 40.5879 58.7784 40.6946 58.2313C41.2615 55.3773 42.3112 52.6248 43.7874 50.1204C44.0287 49.7143 44.1242 49.0713 43.6078 48.8288C43.1194 48.5975 42.4683 48.9642 42.2157 49.3928Z" fill="#231815"/>
<path d="M45.5836 50.3291C44.5395 53.4596 43.5011 56.59 42.4571 59.7204C42.2999 60.1829 42.429 60.7526 42.9847 60.8259C43.5404 60.8992 44.1186 60.448 44.2869 59.9516C45.331 56.8212 46.3694 53.6908 47.4134 50.5604C47.5706 50.0979 47.4415 49.5282 46.8858 49.4549C46.3301 49.3816 45.7519 49.8328 45.5836 50.3291Z" fill="#231815"/>
<path d="M51.0337 50.3573C49.9616 53.2339 48.8839 56.1162 47.8118 58.9928C47.6378 59.4553 47.795 60.025 48.3395 60.0983C48.8839 60.1716 49.4565 59.7147 49.6417 59.224C50.7138 56.3474 51.7915 53.4652 52.8636 50.5886C53.0376 50.1261 52.8804 49.5564 52.336 49.4831C51.7915 49.4098 51.219 49.8666 51.0337 50.3573Z" fill="#231815"/>
<path d="M11.765 40.0242C10.5694 41.9419 9.37941 43.8596 8.18384 45.783C7.94809 46.1665 7.83583 46.8603 8.36345 47.0746C8.89108 47.289 9.48045 46.9562 9.75549 46.5106C10.9511 44.5929 12.141 42.6751 13.3366 40.7518C13.5724 40.3682 13.6846 39.6745 13.157 39.4601C12.6294 39.2458 12.04 39.5786 11.765 40.0242Z" fill="#231815"/>
<path d="M14.998 27.4405C12.3375 32.3363 9.67688 37.2378 7.0163 42.1337C6.78617 42.5567 6.67391 43.1602 7.19592 43.4253C7.66742 43.6678 8.35782 43.2843 8.58796 42.8613C11.2485 37.9654 13.9091 33.0639 16.5697 28.1681C16.7998 27.745 16.9121 27.1415 16.3901 26.8764C15.9186 26.6339 15.2282 27.0174 14.998 27.4405Z" fill="#231815"/>
<path d="M16.3396 23.0579C12.5227 28.7378 8.8518 34.5191 5.33804 40.3964C4.58028 41.6599 6.24735 42.2352 6.90969 41.124C10.4234 35.2468 14.0944 29.4654 17.9112 23.7855C18.1807 23.3794 18.2256 22.742 17.7316 22.4938C17.2377 22.2457 16.609 22.6518 16.3396 23.0579Z" fill="#231815"/>
<path d="M15.2787 18.7543C12.1691 24.1465 9.05388 29.5387 5.94426 34.9309C5.20895 36.2056 6.87041 36.7809 7.51591 35.6585C10.6255 30.2663 13.7408 24.8741 16.8504 19.4819C17.5857 18.2072 15.9242 17.6318 15.2787 18.7543Z" fill="#231815"/>
<path d="M14.6444 18.0887C11.591 22.6179 8.93038 27.4066 6.67393 32.3871C6.46064 32.8552 6.68516 33.4023 7.20156 33.4926C7.76848 33.5885 8.28488 33.0865 8.50378 32.6183C10.6816 27.8071 13.2636 23.1989 16.2105 18.822C16.4855 18.4158 16.5248 17.7785 16.0309 17.5303C15.5369 17.2821 14.9083 17.6882 14.6388 18.0943L14.6444 18.0887Z" fill="#231815"/>
<path d="M11.0409 18.4328C8.50377 21.5688 6.42695 25.0546 4.83284 28.766C4.63639 29.2228 4.83284 29.7981 5.36047 29.8715C5.92739 29.9448 6.4494 29.4823 6.6627 28.9972C8.18383 25.4607 10.1933 22.1611 12.6125 19.166C12.9156 18.7938 12.9044 18.1 12.4329 17.8744C11.894 17.6206 11.3552 18.0492 11.0409 18.4384V18.4328Z" fill="#231815"/>
<path d="M30.1364 23.8475C37.394 25.8442 44.4665 28.5065 51.2583 31.7497C52.2293 32.2122 53.554 30.4129 52.4707 29.894C45.533 26.5775 38.3146 23.9096 30.9054 21.8678C29.8838 21.5857 28.8791 23.5035 30.1364 23.8475Z" fill="#231815"/>
<path d="M33.6783 18.162C40.9191 21.4899 48.2497 24.6316 55.6477 27.5928C56.6412 27.9932 57.9659 26.177 56.8601 25.7371C49.4621 22.7815 42.1315 19.6342 34.8907 16.3064C33.914 15.8608 32.5893 17.66 33.6783 18.162Z" fill="#231815"/>
<path d="M35.9235 14.7158C43.8772 17.8913 51.7523 21.253 59.5488 24.8008C60.5255 25.2464 61.8557 23.4414 60.7612 22.9451C52.9647 19.3973 45.0896 16.0356 37.1359 12.8601C36.1424 12.4596 34.8177 14.2758 35.9235 14.7158Z" fill="#231815"/>
<path d="M40.992 11.7264C47.7164 15.4264 54.7327 18.5625 61.9735 21.095C62.9839 21.4504 64.2973 19.6285 63.1859 19.2393C55.9451 16.7068 48.9288 13.5708 42.2044 9.87067C41.267 9.35176 39.9311 11.1454 40.992 11.7264Z" fill="#231815"/>
<path d="M41.3625 5.55578L62.0072 14.4789C62.9951 14.9075 64.3198 13.097 63.2196 12.6232C56.3381 9.6507 49.4565 6.67257 42.5749 3.70009C41.587 3.27142 40.2623 5.08199 41.3625 5.55578Z" fill="#231815"/>
<path d="M55.0639 35.8108C58.7404 38.9581 62.417 42.1055 66.0935 45.2528C66.9523 45.986 68.5296 44.3842 67.682 43.6566C64.0055 40.5092 60.3289 37.3619 56.6524 34.2146C55.7936 33.4813 54.2163 35.0832 55.0639 35.8108Z" fill="#231815"/>
<path d="M61.5246 32.9116C65.1169 37.1983 68.9338 41.2932 72.9527 45.1795C73.761 45.9635 75.3495 44.3672 74.5412 43.5832C70.5223 39.697 66.7054 35.6021 63.1131 31.3154C62.4002 30.4637 60.8005 32.043 61.5246 32.9116Z" fill="#231815"/>
<path d="M62.6527 29.2679C66.5201 33.7633 70.6569 38.0162 75.0519 41.9983C75.8882 42.7541 77.4711 41.1522 76.6404 40.4021C72.251 36.42 68.1086 32.1671 64.2412 27.6717C63.5171 26.8257 61.9174 28.4106 62.6527 29.2679Z" fill="#231815"/>
<path d="M69.4502 27.8353C72.6608 31.8061 75.8659 35.7713 79.0765 39.7421C79.7725 40.6051 81.3779 39.0258 80.665 38.1459C77.4544 34.1751 74.2493 30.2099 71.0387 26.2391C70.3426 25.3761 68.7373 26.9554 69.4502 27.8353Z" fill="#231815"/>
<path d="M69.7869 24.6034C72.3914 26.6452 74.4233 29.3074 75.6975 32.3702C76.1521 33.47 77.9595 32.1502 77.5441 31.1518C76.2195 27.965 74.0809 25.1279 71.3698 23.0071C70.9264 22.6631 70.3538 22.8323 69.9834 23.2045C69.6859 23.5035 69.3435 24.2536 69.7869 24.5977V24.6034Z" fill="#231815"/>
<path d="M66.5875 18.8389L73.7273 27.4912C74.0809 27.9199 74.805 27.604 75.1137 27.2938C75.4786 26.9272 75.6694 26.3349 75.3102 25.9006L68.1704 17.2483C67.8168 16.8196 67.0927 17.1355 66.784 17.4457C66.4191 17.8123 66.2283 18.4046 66.5875 18.8389Z" fill="#231815"/>
<path d="M61.8837 20.6776C64.5387 24.4285 67.5361 27.9199 70.8365 31.1124C71.6448 31.8964 73.2333 30.3001 72.425 29.5161C69.1246 26.3237 66.1272 22.8323 63.4722 19.0814C63.1523 18.6245 62.3721 18.9912 62.0858 19.2788C61.6929 19.6737 61.5582 20.2151 61.8894 20.672L61.8837 20.6776Z" fill="#231815"/>
<path d="M59.3523 21.7832C62.4114 25.0659 64.8026 28.89 66.4304 33.0752C66.8626 34.1807 68.67 32.8609 68.2771 31.8569C66.5988 27.542 64.0897 23.5712 60.9408 20.1869C60.1775 19.3691 58.5833 20.954 59.3523 21.7832Z" fill="#231815"/>
<path d="M21.728 14.0784C19.5726 17.5529 17.4172 21.0273 15.2562 24.4962C15.0036 24.8967 14.925 25.5453 15.4358 25.7878C15.9466 26.0304 16.564 25.6468 16.8278 25.2238C18.9833 21.7493 21.1387 18.2748 23.2997 14.806C23.5523 14.4055 23.6309 13.7569 23.1201 13.5144C22.6093 13.2718 21.9918 13.6554 21.728 14.0784Z" fill="#231815"/>
<path d="M19.9544 13.3733L14.3021 23.1312C14.0663 23.5373 13.9597 24.1803 14.4817 24.4229C14.97 24.6541 15.6268 24.2875 15.8737 23.8588C17.7597 20.6043 19.6401 17.3498 21.5261 14.101C21.7618 13.6948 21.8684 13.0518 21.3464 12.8093C20.8581 12.5781 20.2014 12.9447 19.9544 13.3733Z" fill="#231815"/>
<path d="M23.4008 16.03C20.0386 20.0741 16.9907 24.3608 14.3077 28.89C14.0607 29.3074 13.9765 29.9222 14.4873 30.1817C14.97 30.4299 15.6324 30.035 15.8793 29.6176C18.4557 25.2633 21.3577 21.112 24.5908 17.2257C24.8995 16.8535 25.197 16.2556 24.7872 15.8326C24.4224 15.449 23.6983 15.669 23.4008 16.03Z" fill="#231815"/>
<path d="M20.5494 24.6767C18.2536 27.4856 16.1431 30.4355 14.2684 33.5434C14.0214 33.9495 13.9316 34.5925 14.448 34.835C14.9644 35.0775 15.5818 34.6996 15.84 34.271C17.6081 31.338 19.5727 28.5178 21.7393 25.8724C22.0424 25.5002 22.3568 24.8967 21.9358 24.4793C21.5653 24.107 20.8469 24.3101 20.5494 24.6767Z" fill="#231815"/>
<path d="M13.6004 29.9786C11.8155 32.9568 10.1596 36.0082 8.62166 39.1217C8.39714 39.5729 8.64411 40.1595 9.14928 40.2272C9.73865 40.3062 10.2101 39.8324 10.4515 39.353C11.9053 36.4087 13.4825 33.5264 15.1721 30.7119C15.4134 30.3058 15.5089 29.6628 14.9925 29.4202C14.4761 29.1777 13.853 29.5556 13.6004 29.9843V29.9786Z" fill="#231815"/>
<path d="M7.33625 28.3993C5.66356 31.7554 3.99649 35.117 2.32381 38.4731C2.09928 38.9243 2.34626 39.5109 2.85143 39.5786C3.4408 39.6575 3.91229 39.1837 4.15366 38.7043C5.82634 35.3483 7.49341 31.9866 9.1661 28.6306C9.39062 28.1794 9.14365 27.5928 8.63847 27.5251C8.0491 27.4461 7.57761 27.9199 7.33625 28.3993Z" fill="#231815"/>
<path d="M6.75244 37.1476C5.45022 38.7776 4.56336 40.6728 4.04135 42.6864C3.91225 43.1941 4.40619 43.6171 4.8833 43.5325C5.47828 43.4253 5.85997 42.9684 6.00591 42.4044C6.03397 42.2916 6.03397 42.2916 6.00591 42.41C6.02275 42.3536 6.03397 42.2972 6.05081 42.2465C6.08449 42.1337 6.11817 42.0265 6.15185 41.9193C6.2192 41.6993 6.29779 41.485 6.37637 41.2707C6.53915 40.842 6.72438 40.4246 6.92645 40.0129C6.98258 39.9057 6.97697 39.9113 6.91522 40.0354C6.94329 39.9847 6.97135 39.9339 6.9938 39.8831C7.04993 39.7816 7.10607 39.6801 7.1622 39.5842C7.27446 39.3868 7.39794 39.1894 7.52143 38.9976C7.7684 38.6141 8.03783 38.2418 8.32409 37.8864C8.61036 37.5311 8.63281 36.7922 8.14448 36.5948C7.58879 36.3692 7.08361 36.7415 6.75244 37.1588V37.1476Z" fill="#231815"/>
<path d="M33.2853 11.8843C38.0058 12.9785 42.6085 14.5127 47.0485 16.4474C48.0307 16.876 49.3554 15.0711 48.2609 14.5917C43.6806 12.595 38.9208 11.0326 34.0543 9.90451C33.0215 9.66762 32.0111 11.591 33.2853 11.8843Z" fill="#231815"/>
<path d="M30.9166 18.2974C34.5931 19.4875 38.09 21.174 41.3175 23.3117C41.7778 23.6163 42.4682 23.1199 42.7096 22.7477C43.0071 22.2964 42.9958 21.7606 42.53 21.456C39.3025 19.3183 35.8055 17.6318 32.129 16.4417C31.5901 16.2669 31.0401 16.5376 30.737 17.0058C30.5124 17.3555 30.3721 18.1226 30.9166 18.2974Z" fill="#231815"/>
<path d="M30.2038 22.9676C32.5893 24.045 34.9805 25.1279 37.366 26.2052C37.8768 26.4365 38.4774 26.0699 38.758 25.6412C39.0106 25.252 39.0948 24.5808 38.5784 24.3495C36.1929 23.2722 33.8017 22.1893 31.4162 21.112C30.9054 20.8807 30.3048 21.2473 30.0241 21.676C29.7716 22.0652 29.6874 22.7364 30.2038 22.9676Z" fill="#231815"/>
<path d="M35.4464 10.0342C40.2062 10.9423 44.736 12.7924 48.8054 15.4377C49.6979 16.0187 51.0338 14.242 50.0178 13.582C45.8193 10.8521 41.1268 8.99077 36.2154 8.05447C35.177 7.85705 34.1666 9.79171 35.4464 10.0342Z" fill="#231815"/>
<path d="M38.6626 7.54683C46.6556 9.75786 54.3118 13.1703 61.3449 17.5867C62.2486 18.1508 63.5845 16.374 62.5573 15.731C55.3782 11.2244 47.5873 7.82321 39.4316 5.56706C38.4156 5.28504 37.4053 7.20277 38.6626 7.54683Z" fill="#231815"/>
<path d="M56.0069 9.25023C59.9528 11.151 63.7248 13.4072 67.2498 16.013C67.6988 16.3458 68.2545 16.1992 68.6362 15.8156C68.9225 15.528 69.2873 14.7552 68.8327 14.4225C65.1842 11.7264 61.3 9.36868 57.2137 7.40018C56.2482 6.93203 54.9179 8.73695 56.0013 9.25587L56.0069 9.25023Z" fill="#231815"/>
<path d="M54.0592 29.251C57.2811 31.8907 60.5086 34.5248 63.7305 37.1645C64.1627 37.5198 64.752 37.3337 65.1169 36.9671C65.42 36.6625 65.7512 35.9236 65.3133 35.5739C62.0915 32.9342 58.864 30.3001 55.6421 27.6604C55.2099 27.3051 54.6205 27.4912 54.2557 27.8579C53.9525 28.1624 53.6214 28.9013 54.0592 29.251Z" fill="#231815"/>
<path d="M51.1068 32.9511C53.9582 35.4836 56.8152 38.0162 59.6666 40.5431C60.0876 40.9153 60.6994 40.701 61.0531 40.3457C61.3674 40.0298 61.6705 39.3247 61.2495 38.9525C58.3981 36.42 55.5411 33.8874 52.6896 31.3605C52.2687 30.9883 51.6568 31.2026 51.3032 31.5579C50.9889 31.8738 50.6858 32.5789 51.1068 32.9511Z" fill="#231815"/>
<path d="M56.7086 39.8662C57.9154 40.6784 59.24 41.2932 60.6377 41.6937C60.8959 41.767 61.098 41.784 61.3562 41.6824C61.6144 41.5809 61.8838 41.3666 62.0297 41.1297C62.1588 40.9097 62.2767 40.639 62.2318 40.3795C62.1925 40.1708 62.0802 39.9001 61.8557 39.838C60.4581 39.4432 59.1334 38.8228 57.9266 38.0105C57.7414 37.8864 57.3933 37.9485 57.2081 38.0218C56.9499 38.1177 56.6805 38.3377 56.5346 38.5746C56.4055 38.7946 56.2876 39.0653 56.3325 39.3247C56.3774 39.5842 56.5009 39.7252 56.7086 39.8662Z" fill="#231815"/>
<path d="M22.2052 23.7573C18.2592 26.1432 14.3132 28.5347 10.3729 30.9206C9.9463 31.18 9.58145 31.823 9.81159 32.3194C10.0586 32.8439 10.6984 32.7424 11.097 32.4999C15.0429 30.114 18.9889 27.7225 22.9293 25.3366C23.3558 25.0771 23.7207 24.4341 23.4906 23.9378C23.2436 23.4132 22.6037 23.5148 22.2052 23.7573Z" fill="#231815"/>
<path d="M25.7638 8.96257C21.1724 11.3879 16.9121 14.3886 13.0391 17.8575C12.6798 18.179 12.4666 18.8671 12.8426 19.2506C13.2468 19.668 13.8867 19.3634 14.229 19.0532C17.9505 15.7197 22.0817 12.8714 26.4879 10.5419C26.9314 10.3106 27.2737 9.61685 27.0492 9.14306C26.7966 8.60158 26.1736 8.74823 25.7638 8.96257Z" fill="#231815"/>
<path d="M53.8795 49.2687L51.3705 57.1822C51.2246 57.6504 51.3368 58.2144 51.8981 58.2877C52.4257 58.3554 53.0376 57.9098 53.2003 57.4135L55.7094 49.5C55.8553 49.0318 55.7431 48.4678 55.1818 48.3945C54.6541 48.3268 54.0423 48.7724 53.8795 49.2687Z" fill="#231815"/>
<path d="M49.7259 49.0262C47.969 52.0889 46.4647 55.2927 45.2523 58.6149C45.0839 59.0774 45.2355 59.647 45.78 59.7204C46.3244 59.7937 46.8969 59.3368 47.0822 58.8461C48.2329 55.7044 49.6361 52.6643 51.2976 49.7595C51.5333 49.3477 51.64 48.716 51.118 48.4678C50.6352 48.2366 49.9729 48.6032 49.7259 49.0318V49.0262Z" fill="#231815"/>
<path d="M43.8828 48.1971C42.7995 51.3331 41.9126 54.5369 41.2054 57.7801C41.0931 58.299 41.559 58.6938 42.0473 58.6261C42.6255 58.5472 43.0521 58.0452 43.1699 57.4981C43.8379 54.4241 44.6855 51.3952 45.707 48.4227C45.8698 47.9602 45.7295 47.3905 45.1794 47.3172C44.6293 47.2438 44.0512 47.6951 43.8772 48.1914L43.8828 48.1971Z" fill="#231815"/>
<path d="M40.7675 49.3816L37.9049 54.4184C37.686 54.8076 37.5456 55.4957 38.0845 55.7101C38.584 55.9131 39.2183 55.5973 39.4765 55.146L42.3392 50.1092C42.5581 49.72 42.6984 49.0318 42.1596 48.8175C41.66 48.6145 41.0257 48.9303 40.7675 49.3816Z" fill="#231815"/>
<path d="M19.3818 50.3009C18.2423 53.2001 17.0973 56.0993 15.9578 58.9984C15.7782 59.4609 15.9466 60.0306 16.4854 60.1039C17.0243 60.1772 17.5912 59.7204 17.7877 59.2297C18.9271 56.3305 20.0722 53.4313 21.2116 50.5322C21.3912 50.0697 21.2228 49.5 20.684 49.4267C20.1451 49.3534 19.5782 49.8102 19.3818 50.3009Z" fill="#231815"/>
<path d="M23.4345 50.3461L20.9423 57.5488C20.7795 58.0113 20.9198 58.581 21.4699 58.6543C22.02 58.7277 22.5981 58.2764 22.7721 57.7801L25.2643 50.5773C25.4271 50.1148 25.2868 49.5451 24.7367 49.4718C24.1866 49.3985 23.6085 49.8497 23.4345 50.3461Z" fill="#231815"/>
<path d="M73.5757 45.6702C74.0416 46.3752 74.5524 47.0464 75.1473 47.65C75.7423 48.2535 76.399 48.778 77.0951 49.2518C77.2803 49.3759 77.6339 49.3139 77.8135 49.2405C78.0717 49.1447 78.3411 48.9247 78.4871 48.6878C78.6162 48.4678 78.7341 48.1971 78.6892 47.9376L78.6274 47.712C78.5601 47.5653 78.4534 47.4638 78.3131 47.3961C78.2682 47.3679 78.2233 47.3341 78.1784 47.3003L78.3636 47.43C77.241 46.6403 76.2699 45.6589 75.4785 44.5308L75.6076 44.717C75.5459 44.6267 75.4841 44.5365 75.4224 44.4462C75.2877 44.2375 75.1417 44.1022 74.8835 44.0683C74.6365 44.0345 74.3334 44.1304 74.137 44.2714C73.9012 44.4406 73.6823 44.6662 73.5869 44.9482C73.5139 45.1625 73.4466 45.4671 73.5757 45.6702Z" fill="#231815"/>
<path d="M69.046 45.1456C70.7411 47.1649 72.6608 48.9754 74.7769 50.5435C75.2147 50.8706 75.7985 50.7409 76.1633 50.3461C76.4383 50.0471 76.82 49.2913 76.3598 48.9529C74.2493 47.3849 72.324 45.5743 70.6289 43.555C70.2752 43.1376 69.5455 43.4309 69.2424 43.7524C68.8888 44.1304 68.6755 44.7057 69.046 45.1456Z" fill="#231815"/>
<path d="M72.9919 42.6187C75.1417 45.0328 77.5273 47.2156 80.1205 49.1334C80.5583 49.4605 81.1421 49.3308 81.5069 48.936C81.7819 48.637 82.1636 47.8812 81.7033 47.5428C79.1101 45.6251 76.719 43.4422 74.5748 41.0281C74.2099 40.6164 73.4971 40.8928 73.1884 41.2256C72.846 41.5922 72.6102 42.1901 72.9919 42.6187Z" fill="#231815"/>
<path d="M76.3935 40.2385C76.8593 40.4697 77.314 40.7236 77.7574 40.9999C77.8753 41.0733 77.9932 41.1522 78.1111 41.2312C78.156 41.265 78.2065 41.2932 78.2514 41.3271C78.33 41.3778 78.1784 41.2763 78.3075 41.3666C78.5264 41.5245 78.7397 41.6824 78.9474 41.8516C79.7781 42.5116 80.5359 43.2561 81.2151 44.0683C81.5687 44.4913 82.304 44.1924 82.6015 43.8709C82.9551 43.493 83.1684 42.9177 82.7979 42.4777C81.3722 40.7743 79.5817 39.3755 77.6003 38.3884C77.1119 38.1459 76.4608 38.5295 76.2082 38.9525C75.9556 39.3755 75.8714 39.9903 76.3878 40.2441L76.3935 40.2385Z" fill="#231815"/>
<path d="M77.488 36.9671C78.4422 37.565 79.402 38.1628 80.3562 38.7607C80.5471 38.8792 80.8839 38.8228 81.0747 38.7494C81.3329 38.6535 81.6023 38.4336 81.7483 38.1967C81.8774 37.9767 81.9952 37.706 81.9503 37.4465C81.9054 37.187 81.7876 37.0404 81.5743 36.905L78.706 35.1114C78.5152 34.9929 78.1784 35.0493 77.9875 35.1227C77.7293 35.2186 77.4599 35.4385 77.314 35.6754C77.1849 35.8954 77.067 36.1661 77.1119 36.4256C77.1568 36.6851 77.2747 36.8317 77.488 36.9671Z" fill="#231815"/>
<path d="M77.4711 32.3194C77.8641 32.5394 78.2457 32.7763 78.6162 33.0301L78.431 32.9004C79.1831 33.4306 79.8791 34.0341 80.5078 34.7053C80.8839 35.1057 81.5799 34.8463 81.8942 34.5079C82.231 34.1469 82.4836 33.5321 82.0907 33.1147C81.1084 32.0543 79.9409 31.1631 78.6836 30.4637C78.4815 30.3509 78.1672 30.396 77.9651 30.475C77.7069 30.5709 77.4375 30.7909 77.2915 31.0277C77.0333 31.4564 76.966 32.043 77.4711 32.3194Z" fill="#231815"/>
<path d="M2.46409 55.1404C1.0496 56.8945 -0.0786187 59.0379 -3.61208e-05 61.3561C0.0673203 63.2682 1.14502 65.2254 2.95804 65.9586C3.48005 66.1673 4.0638 65.8346 4.35007 65.3946C4.59704 65.0167 4.69808 64.3116 4.17045 64.103C2.76719 63.5333 2.00943 62.0611 1.97014 60.5834C1.92524 58.8123 2.96365 57.1935 4.03013 55.868C4.32762 55.4957 4.32762 54.802 3.85051 54.5763C3.31166 54.3225 2.77281 54.7456 2.45847 55.1404H2.46409Z" fill="#231815"/>
<path d="M77.0783 54.7004C78.0606 55.7044 78.5433 57.2724 78.1785 58.581C78.0774 58.9476 77.9539 59.2127 77.808 59.444C77.7182 59.5906 77.6171 59.7373 77.5105 59.8727C77.46 59.9347 77.4656 59.9347 77.5105 59.867L77.4319 59.9516C77.3646 60.0193 77.2972 60.0926 77.2298 60.1603C77.1625 60.228 77.0895 60.2957 77.0166 60.3577C77.112 60.2788 77.0278 60.3521 76.9773 60.3859C76.8201 60.4987 76.6573 60.6059 76.4945 60.7074C76.3823 60.7751 75.8771 60.9838 75.7087 61.0233C75.1643 61.153 74.6647 61.5648 74.5861 62.1514C74.5188 62.6308 74.9061 63.1272 75.4281 62.9974C77.4881 62.4954 79.3011 60.9725 79.969 58.9194C80.637 56.8663 80.1542 54.6271 78.6612 53.1042C77.8753 52.3033 76.2869 53.8939 77.0727 54.7004H77.0783Z" fill="#231815"/>
</g>
<defs>
<clipPath id="clip0_11_76">
<rect width="83" height="99" fill="white"/>
</clipPath>
</defs>
</svg>
