<svg width="79" height="50" viewBox="0 0 79 50" fill="none" xmlns="http://www.w3.org/2000/svg">
<path d="M10.0974 43.117L4.31746 47.452C3.34165 48.1838 2.08954 48.0979 1.77352 46.9198C0.817061 43.3541 0.923075 35.4516 1.1698 30.7708C1.19102 30.3682 1.11513 29.9692 1.06106 29.5697C0.264888 23.6876 15.313 11.2985 23.2037 5.66231C36.4037 -4.73769 56.7037 4.66231 65.2037 10.6623C82.0385 26.0007 79.4836 40.785 75.5372 47.4071C75.0513 48.2224 74.1442 48.6623 73.1951 48.6623H72.9913C72.8 48.6623 72.6091 48.644 72.4213 48.6077L57.6007 45.7391C57.3372 45.6882 57.0693 45.6785 56.801 45.6738C51.6572 45.5821 43.283 36.7377 39.4337 31.9503C39.2784 31.7572 39.0982 31.5808 38.8997 31.4325C25.4686 21.3976 16.5159 30.3726 13.7037 36.1623L11.0213 41.9742C10.8128 42.4258 10.4953 42.8186 10.0974 43.117Z" fill="black" stroke="black"/>
</svg>
