<svg width="82" height="99" viewBox="0 0 82 99" fill="none" xmlns="http://www.w3.org/2000/svg">
<path d="M2.46799 50.6409C1.05351 52.3951 -0.0747124 54.5384 0.00387013 56.8566C0.0712266 58.7687 1.14893 60.7259 2.96194 61.4592C3.48395 61.6679 4.06771 61.3351 4.35398 60.8951C4.60095 60.5172 4.70198 59.8122 4.17436 59.6035C2.7711 59.0338 2.01334 57.5617 1.97405 56.0839C1.92914 54.3128 2.96755 52.694 4.03403 51.3685C4.33152 50.9963 4.33152 50.3025 3.85441 50.0769C3.31556 49.8231 2.77671 50.2461 2.46238 50.6409H2.46799Z" fill="black"/>
<path d="M78.4998 52.8156C79.4821 53.8195 79.9648 55.3876 79.6 56.6961C79.4989 57.0628 79.3754 57.3279 79.2295 57.5591C79.1397 57.7058 79.0387 57.8524 78.932 57.9878C78.8815 58.0498 78.8871 58.0498 78.932 57.9821L78.8534 58.0668C78.7861 58.1344 78.7187 58.2078 78.6514 58.2755C78.584 58.3431 78.511 58.4108 78.4381 58.4729C78.5335 58.3939 78.4493 58.4672 78.3988 58.5011C78.2416 58.6139 78.0788 58.721 77.916 58.8226C77.8038 58.8902 77.2986 59.0989 77.1302 59.1384C76.5858 59.2682 76.0862 59.6799 76.0076 60.2665C75.9403 60.7459 76.3276 61.2423 76.8496 61.1126C78.9096 60.6106 80.7226 59.0877 81.3905 57.0346C82.0585 54.9815 81.5758 52.7422 80.0827 51.2193C79.2969 50.4184 77.7084 52.009 78.4942 52.8156H78.4998Z" fill="black"/>
<ellipse cx="20" cy="50.5" rx="4" ry="2.5" fill="#2A2A2A"/>
<ellipse cx="49" cy="51.5" rx="4" ry="2.5" fill="#2A2A2A"/>
<path d="M26.5946 83.8114C32.2413 84.8605 38.1238 83.7268 43.0408 80.7713C44.1409 80.1113 43.574 78.4362 42.3167 79.192C37.8431 81.8768 32.4827 82.7736 27.3692 81.826C26.3308 81.6343 25.3204 83.5689 26.6002 83.8058L26.5946 83.8114Z" fill="#231815" fill-opacity="0.7"/>
<path d="M35.1974 56.1017C34.9616 58.2901 34.2937 60.394 33.171 62.2892C32.6322 63.1973 32.0484 64.1618 32.0035 65.2447C31.9586 66.3277 32.3403 67.2245 33.2496 67.7603C34.1589 68.2962 35.5061 66.5194 34.462 65.9046C33.839 65.538 33.9232 64.6694 34.1589 64.1054C34.5126 63.2367 35.0907 62.4584 35.5005 61.6179C36.3929 59.8074 36.9486 57.8276 37.1619 55.8196C37.3135 54.4208 35.3152 55.0131 35.1974 56.1017Z" fill="#231815" fill-opacity="0.7"/>
<path d="M12.9723 83.1976C11.9783 76.88 9.08945 71.4331 7.08081 68.4769C6.40935 67.4886 5.17604 66.739 4.86868 65.5844C4.24578 63.2445 4.5544 58.4573 4.90671 55.4551C4.94034 55.1685 4.94539 54.8771 4.9194 54.5898C4.26818 47.3887 4.02974 43.2043 3.97216 41.4285C3.95651 40.9461 3.86373 40.4685 3.71498 40.0093C0.780193 30.9492 7.56457 22.7164 11.6775 19.4414C11.8726 19.2861 12.053 19.1199 12.2226 18.9371C16.9324 13.8604 24.9137 9.5707 28.6759 7.895C28.8912 7.79908 29.0967 7.68626 29.2966 7.56125C38.3614 1.89185 54.5187 6.91015 62.0357 10.3747C62.3675 10.5276 62.7137 10.6281 63.0641 10.7298L63.1169 10.7452C67.8604 12.1239 74.0097 21.3066 76.5781 25.8979C83.448 36.8142 80.8654 45.131 78.4405 48.3717C78.2114 48.6779 77.9055 48.9134 77.6536 49.2012C76.8838 50.0805 76.1165 51.9082 75.5818 53.44C75.2307 54.4459 75.3993 55.5374 75.7866 56.5299C77.7483 61.5577 75.8009 66.6636 74.2944 69.02C74.1514 69.2438 73.9778 69.4411 73.7911 69.63C72.0016 71.4396 65.3478 78.6536 62.0539 82.2426L56.7508 88.6775C56.6137 88.8439 56.4906 89.0229 56.3779 89.2068C52.3017 95.8588 43.8045 97.843 40.0173 98C34.8086 98 25.4931 95.4533 21.4864 94.18C16.6785 92.27 13.807 86.0626 12.9723 83.1976Z" stroke="black"/>
<path d="M13.0974 43.117L7.31746 47.452C6.34165 48.1838 5.08954 48.0979 4.77352 46.9198C3.81706 43.3541 3.92308 35.4516 4.1698 30.7708C4.19102 30.3682 4.11513 29.9692 4.06106 29.5697C3.26489 23.6876 18.313 11.2985 26.2037 5.66231C39.4037 -4.73769 59.7037 4.66231 68.2037 10.6623C85.0385 26.0007 82.4836 40.785 78.5372 47.4071C78.0513 48.2224 77.1442 48.6623 76.1951 48.6623H75.9913C75.8 48.6623 75.6091 48.644 75.4213 48.6077L60.6007 45.7391C60.3372 45.6882 60.0693 45.6785 59.801 45.6738C54.6572 45.5821 46.283 36.7377 42.4337 31.9503C42.2784 31.7572 42.0982 31.5808 41.8997 31.4325C28.4686 21.3976 19.5159 30.3726 16.7037 36.1623L14.0213 41.9742C13.8128 42.4258 13.4953 42.8186 13.0974 43.117Z" fill="black" stroke="black"/>
<path d="M15 45C18 45 24.4 45.2 26 46" stroke="black"/>
<path d="M44 46C47 46 53.4 46.2 55 47" stroke="black"/>
</svg>
