<svg width="79" height="20" viewBox="0 0 79 20" fill="none" xmlns="http://www.w3.org/2000/svg">
<path d="M31 7.18972C27.8 22.7897 15.6667 19.6897 10 16.1897C7.6 14.9794 7.33333 10.6854 7.5 8.68972L1 8.18972V6.18971H8C14.4 -1.81029 24 1.18971 28 3.68971C31.6 1.68971 34.5 2.52305 35.5 3.18972C41.1 0.789715 55.8333 1.85638 62.5 2.68972L77 9.18972L74.5 10.6897C62.1 5.48972 58 6.85638 57.5 8.18972C55.1 18.9897 48.1667 19.3564 45 18.1897C38.2 18.1897 35.8333 11.523 35.5 8.18972C33.5 4.18972 31.6667 5.85638 31 7.18972Z" fill="#040101" fill-opacity="0.85" stroke="black"/>
</svg>
